<svg width="40" height="40" viewBox="0 0 40 40" fill="none" xmlns="http://www.w3.org/2000/svg">
<circle cx="20" cy="20" r="19.5" stroke="#E1E6E5"/>
<path d="M20.0059 8.18164C15.071 8.18164 13.6277 8.18673 13.3472 8.21C12.3344 8.29419 11.7043 8.45364 11.0177 8.79546C10.4886 9.05819 10.0714 9.36273 9.65954 9.78964C8.90954 10.5682 8.45499 11.526 8.29045 12.6645C8.21045 13.2173 8.18718 13.33 8.18245 16.1533C8.18063 17.0944 8.18245 18.3329 8.18245 19.9942C8.18245 24.9251 8.1879 26.3669 8.21154 26.6469C8.29336 27.6324 8.4479 28.2524 8.77518 28.9306C9.40063 30.2287 10.5952 31.2033 12.0024 31.5669C12.4897 31.6924 13.0279 31.7615 13.7188 31.7942C14.0115 31.8069 16.9952 31.816 19.9806 31.816C22.9661 31.816 25.9515 31.8124 26.237 31.7978C27.037 31.7602 27.5015 31.6978 28.0152 31.5651C29.4315 31.1996 30.6043 30.2396 31.2424 28.9233C31.5634 28.2615 31.7261 27.6178 31.7997 26.6838C31.8157 26.4802 31.8224 23.2335 31.8224 19.9911C31.8224 16.7482 31.8152 13.5075 31.7992 13.3038C31.7246 12.3547 31.5619 11.7165 31.2306 11.042C30.9588 10.4898 30.657 10.0775 30.2188 9.65582C29.4368 8.90891 28.4804 8.45437 27.3408 8.29C26.7886 8.21019 26.6786 8.18655 23.8532 8.18164H20.0059Z" fill="url(#paint0_radial_518_1905)"/>
<path d="M20.0059 8.18164C15.071 8.18164 13.6277 8.18673 13.3472 8.21C12.3344 8.29419 11.7043 8.45364 11.0177 8.79546C10.4886 9.05819 10.0714 9.36273 9.65954 9.78964C8.90954 10.5682 8.45499 11.526 8.29045 12.6645C8.21045 13.2173 8.18718 13.33 8.18245 16.1533C8.18063 17.0944 8.18245 18.3329 8.18245 19.9942C8.18245 24.9251 8.1879 26.3669 8.21154 26.6469C8.29336 27.6324 8.4479 28.2524 8.77518 28.9306C9.40063 30.2287 10.5952 31.2033 12.0024 31.5669C12.4897 31.6924 13.0279 31.7615 13.7188 31.7942C14.0115 31.8069 16.9952 31.816 19.9806 31.816C22.9661 31.816 25.9515 31.8124 26.237 31.7978C27.037 31.7602 27.5015 31.6978 28.0152 31.5651C29.4315 31.1996 30.6043 30.2396 31.2424 28.9233C31.5634 28.2615 31.7261 27.6178 31.7997 26.6838C31.8157 26.4802 31.8224 23.2335 31.8224 19.9911C31.8224 16.7482 31.8152 13.5075 31.7992 13.3038C31.7246 12.3547 31.5619 11.7165 31.2306 11.042C30.9588 10.4898 30.657 10.0775 30.2188 9.65582C29.4368 8.90891 28.4804 8.45437 27.3408 8.29C26.7886 8.21019 26.6786 8.18655 23.8532 8.18164H20.0059Z" fill="url(#paint1_radial_518_1905)"/>
<path d="M20.0005 11.2725C17.6303 11.2725 17.3328 11.2828 16.4019 11.3252C15.4728 11.3677 14.8386 11.5148 14.2837 11.7306C13.7097 11.9536 13.2228 12.2517 12.7377 12.737C12.2523 13.2221 11.9541 13.709 11.7305 14.2828C11.5141 14.8379 11.3668 15.4723 11.325 16.401C11.2834 17.3319 11.2725 17.6296 11.2725 19.9997C11.2725 22.3699 11.283 22.6665 11.3252 23.5974C11.3679 24.5265 11.515 25.1606 11.7306 25.7156C11.9537 26.2896 12.2519 26.7765 12.7372 27.2616C13.2221 27.747 13.709 28.0459 14.2826 28.2688C14.8379 28.4846 15.4723 28.6317 16.4012 28.6743C17.3321 28.7166 17.6294 28.727 19.9994 28.727C22.3697 28.727 22.6663 28.7166 23.5972 28.6743C24.5263 28.6317 25.1612 28.4846 25.7165 28.2688C26.2903 28.0459 26.7765 27.747 27.2614 27.2616C27.7468 26.7765 28.045 26.2896 28.2686 25.7157C28.4832 25.1606 28.6305 24.5263 28.6741 23.5976C28.7159 22.6666 28.7268 22.3699 28.7268 19.9997C28.7268 17.6296 28.7159 17.3321 28.6741 16.4012C28.6305 15.4721 28.4832 14.8379 28.2686 14.283C28.045 13.709 27.7468 13.2221 27.2614 12.737C26.7759 12.2516 26.2905 11.9534 25.7159 11.7306C25.1596 11.5148 24.525 11.3677 23.5959 11.3252C22.665 11.2828 22.3686 11.2725 19.9977 11.2725H20.0005ZM19.2176 12.8452C19.4499 12.8448 19.7092 12.8452 20.0005 12.8452C22.3306 12.8452 22.6068 12.8536 23.527 12.8954C24.3779 12.9343 24.8397 13.0765 25.1474 13.1959C25.5546 13.3541 25.845 13.5432 26.1503 13.8486C26.4557 14.1541 26.6448 14.445 26.8034 14.8523C26.9228 15.1596 27.0652 15.6214 27.1039 16.4723C27.1457 17.3923 27.1548 17.6686 27.1548 19.9977C27.1548 22.3268 27.1457 22.6032 27.1039 23.5232C27.065 24.3741 26.9228 24.8359 26.8034 25.1432C26.6452 25.5505 26.4557 25.8405 26.1503 26.1457C25.8448 26.4512 25.5548 26.6403 25.1474 26.7985C24.8401 26.9185 24.3779 27.0603 23.527 27.0992C22.607 27.141 22.3306 27.1501 20.0005 27.1501C17.6701 27.1501 17.3939 27.141 16.4739 27.0992C15.623 27.0599 15.1612 26.9177 14.8534 26.7983C14.4461 26.6401 14.1552 26.451 13.8497 26.1456C13.5443 25.8401 13.3552 25.5499 13.1966 25.1425C13.0772 24.8352 12.9348 24.3734 12.8961 23.5225C12.8543 22.6025 12.8459 22.3261 12.8459 19.9956C12.8459 17.665 12.8543 17.3901 12.8961 16.4701C12.935 15.6192 13.0772 15.1574 13.1966 14.8497C13.3548 14.4425 13.5443 14.1516 13.8497 13.8461C14.1552 13.5406 14.4461 13.3516 14.8534 13.193C15.161 13.073 15.623 12.9312 16.4739 12.8921C17.279 12.8557 17.591 12.8448 19.2176 12.843V12.8452ZM24.659 14.2943C24.0808 14.2943 23.6117 14.7628 23.6117 15.3412C23.6117 15.9194 24.0808 16.3885 24.659 16.3885C25.2372 16.3885 25.7063 15.9194 25.7063 15.3412C25.7063 14.763 25.2372 14.2939 24.659 14.2939V14.2943ZM20.0005 15.5179C17.5254 15.5179 15.5186 17.5246 15.5186 19.9997C15.5186 22.4748 17.5254 24.4806 20.0005 24.4806C22.4756 24.4806 24.4816 22.4748 24.4816 19.9997C24.4816 17.5246 22.4756 15.5179 20.0005 15.5179ZM20.0005 17.0906C21.607 17.0906 22.9096 18.393 22.9096 19.9997C22.9096 21.6063 21.607 22.9088 20.0005 22.9088C18.3937 22.9088 17.0914 21.6063 17.0914 19.9997C17.0914 18.393 18.3937 17.0906 20.0005 17.0906Z" fill="white"/>
<defs>
<radialGradient id="paint0_radial_518_1905" cx="0" cy="0" r="1" gradientUnits="userSpaceOnUse" gradientTransform="translate(14.4613 33.6363) rotate(-90) scale(23.4234 21.7915)">
<stop stop-color="#FFDD55"/>
<stop offset="0.1" stop-color="#FFDD55"/>
<stop offset="0.5" stop-color="#FF543E"/>
<stop offset="1" stop-color="#C837AB"/>
</radialGradient>
<radialGradient id="paint1_radial_518_1905" cx="0" cy="0" r="1" gradientTransform="matrix(2.05565 10.2667 -42.3304 8.47576 4.22168 9.88422)" gradientUnits="userSpaceOnUse">
<stop stop-color="#3771C8"/>
<stop offset="0.128" stop-color="#3771C8"/>
<stop offset="1" stop-color="#6600FF" stop-opacity="0"/>
</radialGradient>
</defs>
</svg>
