<svg width="40" height="40" viewBox="0 0 40 40" fill="none" xmlns="http://www.w3.org/2000/svg">
<circle cx="20" cy="20" r="19.5" stroke="#E1E6E5"/>
<g clip-path="url(#clip0_3175_9037)">
<path d="M8 20C8 25.123 11.2109 29.4969 15.7302 31.2181C15.62 30.2811 15.5033 28.7361 15.755 27.6523C15.972 26.72 17.1561 21.7142 17.1561 21.7142C17.1561 21.7142 16.7989 20.9994 16.7989 19.94C16.7989 18.2802 17.7613 17.0398 18.9603 17.0398C19.9803 17.0398 20.472 17.8053 20.472 18.7222C20.472 19.7473 19.8191 21.2792 19.482 22.7005C19.2013 23.8892 20.0792 24.8591 21.2511 24.8591C23.3741 24.8591 25.0072 22.6198 25.0072 19.3883C25.0072 16.527 22.9513 14.5283 20.0159 14.5283C16.6184 14.5283 14.6234 17.0773 14.6234 19.7122C14.6234 20.7392 15.0181 21.8394 15.5122 22.4384C15.5746 22.5044 15.6093 22.5918 15.6092 22.6827C15.6092 22.7155 15.6045 22.7488 15.5956 22.7806C15.5047 23.1589 15.3022 23.9698 15.2638 24.1353C15.2108 24.3533 15.0908 24.4006 14.8634 24.2947C13.3719 23.6005 12.4395 21.4194 12.4395 19.6677C12.4395 15.8984 15.177 12.4386 20.3314 12.4386C24.4756 12.4386 27.6969 15.3917 27.6969 19.3377C27.6969 23.4547 25.1014 26.7687 21.4977 26.7687C20.2864 26.7687 19.1497 26.1383 18.7597 25.3953C18.7597 25.3953 18.1606 27.6772 18.0153 28.2355C17.7336 29.3197 16.9513 30.6912 16.4666 31.4703C17.5841 31.8153 18.77 32 20 32C26.6272 32 32 26.6267 32 20C32 13.3733 26.6272 8 20 8C13.3728 8 8 13.3728 8 20Z" fill="#E60019"/>
</g>
<defs>
<clipPath id="clip0_3175_9037">
<rect width="24" height="24" fill="white" transform="translate(8 8)"/>
</clipPath>
</defs>
</svg>
